<svg width="22" height="23" viewBox="0 0 22 23" fill="none" xmlns="http://www.w3.org/2000/svg">
<path fill-rule="evenodd" clip-rule="evenodd" d="M5.66667 15.9079C5.66667 14.8033 4.77124 13.9079 3.66667 13.9079H2V2H20V13.9079H14.9903C14.3591 13.9079 13.744 14.107 13.2325 14.4769L14.4044 16.0975L13.2325 14.4769L5.66667 19.9476V15.9079ZM5.25262 22.7151L14.4044 16.0975C14.5749 15.9743 14.7799 15.9079 14.9903 15.9079H20C21.1046 15.9079 22 15.0125 22 13.9079V2C22 0.895431 21.1046 0 20 0H2C0.895431 0 0 0.895431 0 2V13.9079C0 15.0125 0.895432 15.9079 2 15.9079H3.66667V17.9079V21.9047C3.66667 22.7207 4.59135 23.1932 5.25262 22.7151ZM7.3333 9.27961C8.00831 9.27961 8.55552 8.68609 8.55552 7.95395C8.55552 7.22181 8.00831 6.6283 7.3333 6.6283C6.65828 6.6283 6.11107 7.22181 6.11107 7.95395C6.11107 8.68609 6.65828 9.27961 7.3333 9.27961ZM12.2222 7.95397C12.2222 8.68611 11.675 9.27963 11 9.27963C10.3249 9.27963 9.77773 8.68611 9.77773 7.95397C9.77773 7.22183 10.3249 6.62831 11 6.62831C11.675 6.62831 12.2222 7.22183 12.2222 7.95397ZM14.6666 9.27963C15.3416 9.27963 15.8888 8.68611 15.8888 7.95397C15.8888 7.22183 15.3416 6.62831 14.6666 6.62831C13.9916 6.62831 13.4444 7.22183 13.4444 7.95397C13.4444 8.68611 13.9916 9.27963 14.6666 9.27963Z" fill="#222222"/>
</svg>
