<svg width="10" height="10" viewBox="0 0 10 10" fill="none" xmlns="http://www.w3.org/2000/svg">
<path d="M4.62506 3.125C4.62506 3.02554 4.66456 2.93016 4.73489 2.85984C4.80522 2.78951 4.9006 2.75 5.00006 2.75H6.87506C6.97451 2.75 7.06989 2.78951 7.14022 2.85984C7.21055 2.93016 7.25006 3.02554 7.25006 3.125V5C7.25006 5.09946 7.21055 5.19484 7.14022 5.26517C7.06989 5.33549 6.97451 5.375 6.87506 5.375C6.7756 5.375 6.68022 5.33549 6.60989 5.26517C6.53956 5.19484 6.50006 5.09946 6.50006 5V4.03025L4.51556 6.0155C4.48069 6.05037 4.4393 6.07802 4.39374 6.09689C4.34819 6.11576 4.29936 6.12547 4.25006 6.12547C4.20075 6.12547 4.15192 6.11576 4.10637 6.09689C4.06081 6.07802 4.01942 6.05037 3.98456 6.0155C3.94969 5.98063 3.92203 5.93924 3.90316 5.89369C3.88429 5.84813 3.87458 5.79931 3.87458 5.75C3.87458 5.70069 3.88429 5.65187 3.90316 5.60631C3.92203 5.56076 3.94969 5.51937 3.98456 5.4845L5.96981 3.5H5.00006C4.9006 3.5 4.80522 3.46049 4.73489 3.39016C4.66456 3.31984 4.62506 3.22446 4.62506 3.125ZM2.0998 1.769C2.22638 1.39874 2.46558 1.07733 2.78391 0.849782C3.10223 0.62223 3.48376 0.499928 3.87506 0.5H7.62506C8.12234 0.5 8.59925 0.697544 8.95088 1.04917C9.30251 1.40081 9.50006 1.87772 9.50006 2.375V6.125C9.50006 6.9485 8.96906 7.6475 8.23105 7.90025V8.17325C8.23105 8.4245 8.14331 8.7455 7.93706 9.01025C7.72031 9.28925 7.37605 9.5 6.9043 9.5H2.5768C2.30349 9.5019 2.03252 9.44945 1.77966 9.34571C1.52679 9.24196 1.29706 9.089 1.10383 8.89569C0.910596 8.70239 0.757712 8.47261 0.654061 8.2197C0.55041 7.9668 0.498061 7.69581 0.500055 7.4225V3.09725C0.500055 2.6855 0.647805 2.34275 0.909555 2.105C1.16455 1.87325 1.4983 1.76975 1.8268 1.76975H2.0998V1.769ZM2.00005 2.519H1.82755C1.67684 2.51297 1.52926 2.56323 1.41355 2.66C1.32505 2.74025 1.25005 2.873 1.25005 3.0965V7.42325C1.25005 8.168 1.83205 8.75075 2.57755 8.75075H6.9043C7.12855 8.75075 7.25981 8.66 7.3453 8.54975C7.4279 8.44109 7.47504 8.30964 7.48031 8.17325V8H3.87506C3.37777 8 2.90086 7.80246 2.54923 7.45083C2.1976 7.09919 2.00005 6.62228 2.00005 6.125V2.519ZM3.87506 1.25C3.57669 1.25 3.29054 1.36853 3.07956 1.5795C2.86858 1.79048 2.75005 2.07663 2.75005 2.375V6.125C2.75005 6.42337 2.86858 6.70952 3.07956 6.9205C3.29054 7.13147 3.57669 7.25 3.87506 7.25H7.62506C7.92342 7.25 8.20957 7.13147 8.42055 6.9205C8.63153 6.70952 8.75006 6.42337 8.75006 6.125V2.375C8.75006 2.07663 8.63153 1.79048 8.42055 1.5795C8.20957 1.36853 7.92342 1.25 7.62506 1.25H3.87506Z" fill="#757171"/>
</svg>
