<svg width="8" height="8" viewBox="0 0 8 8" fill="none" xmlns="http://www.w3.org/2000/svg">
<path d="M0 1.52336C0 1.11934 0.152767 0.731868 0.424695 0.446182C0.696623 0.160497 1.06544 0 1.45 0H6.55C6.93456 0 7.30338 0.160497 7.57531 0.446182C7.84723 0.731868 8 1.11934 8 1.52336V4.7802C8 5.18422 7.84723 5.5717 7.57531 5.85738C7.30338 6.14307 6.93456 6.30356 6.55 6.30356H4.4794L2.3094 7.91265C2.0114 8.1337 1.6 7.90971 1.6 7.52645V6.30356H1.45C1.06544 6.30356 0.696623 6.14307 0.424695 5.85738C0.152767 5.5717 0 5.18422 0 4.7802V1.52336Z" fill="#C0C0C0"/>
</svg>
