<svg width="40" height="40" viewBox="0 0 40 40" fill="none" xmlns="http://www.w3.org/2000/svg">
<circle cx="20" cy="20" r="20" fill="#C4C4C4"/>
<path fill-rule="evenodd" clip-rule="evenodd" d="M17.0942 17.0986V15.722C17.0942 15.4711 17.1069 15.3874 17.1448 15.2587C17.2459 14.9049 17.5873 14.6412 17.9918 14.6412C18.3963 14.6412 18.7376 14.9113 18.8387 15.2587C18.8767 15.3874 18.8894 15.4711 18.8894 15.722V17.8449C18.8894 17.9736 18.8894 18.1021 18.864 18.218C18.7946 18.5396 18.5101 18.8292 18.194 18.8999C18.0803 18.9256 17.9538 18.9256 17.8274 18.9256H15.7416C15.4951 18.9256 15.4129 18.9128 15.2864 18.8741C14.9451 18.7712 14.6797 18.4239 14.6797 18.0122C14.6797 17.6004 14.9451 17.253 15.2864 17.1501C15.4129 17.1115 15.4951 17.0986 15.7416 17.0986H17.0942ZM24.5275 26.7227H13.3397V16.6934C13.3397 16.5647 13.3839 16.4553 13.4724 16.3653L16.3736 13.4124C16.4621 13.3224 16.5696 13.2774 16.696 13.2774H24.5275V26.7227ZM25.798 11.0128C25.7412 11.0064 25.6653 11 25.5199 11H16.3989C16.2978 11 16.1967 11.0064 16.1271 11.0128C15.7099 11.0515 15.337 11.2509 15.0399 11.5532L11.6456 15.0078C11.3487 15.3103 11.1526 15.6898 11.1148 16.1144C11.1084 16.1851 11.1021 16.288 11.1021 16.3909V27.7327C11.1021 27.8806 11.1084 27.9579 11.1148 28.0157C11.1652 28.4982 11.595 28.9356 12.0691 28.9871C12.1261 28.9936 12.2019 29 12.3473 29H25.5199C25.6653 29 25.7412 28.9936 25.798 28.9871C26.2721 28.9356 26.7019 28.4982 26.7525 28.0157C26.7587 27.9579 26.7651 27.8806 26.7651 27.7327V12.2673C26.7651 12.1194 26.7587 12.0421 26.7525 11.9843C26.7019 11.5018 26.2721 11.0643 25.798 11.0128Z" fill="white"/>
</svg>
