<svg width="40" height="40" viewBox="0 0 40 40" fill="none" xmlns="http://www.w3.org/2000/svg">
<path d="M40 20C40 31.0457 31.0457 40 20 40C8.9543 40 0 31.0457 0 20C0 8.9543 8.9543 0 20 0C31.0457 0 40 8.9543 40 20Z" fill="#036195"/>
<path d="M16.8 26V39.6C16.8 39.8209 16.9791 40 17.2 40H22.8C23.0209 40 23.2 39.8209 23.2 39.6V26C23.2 25.7791 23.3791 25.6 23.6 25.6H27.6C27.8209 25.6 28 25.4209 28 25.2V20.4C28 20.1791 27.8209 20 27.6 20H23.6C23.3791 20 23.2 19.8212 23.2 19.6003V16C23.2 14.4 25.2 13.6 26 13.6H28.4C28.6209 13.6 28.8 13.4209 28.8 13.2V8.4C28.8 8.17909 28.621 8 28.4001 8H23.2C19.36 8 16.8 12 16.8 14.4V19.6C16.8 19.8209 16.6209 20 16.4 20H12.4C12.1791 20 12 20.1791 12 20.4V25.2C12 25.4209 12.1791 25.6 12.4 25.6H16.4C16.6209 25.6 16.8 25.7791 16.8 26Z" fill="white"/>
</svg>
