<svg width="21" height="21" viewBox="0 0 21 21" fill="none" xmlns="http://www.w3.org/2000/svg">
<path fill-rule="evenodd" clip-rule="evenodd" d="M6.83283 5.75845C6.83287 3.71609 8.4791 2.06885 10.4995 2.06885C12.5199 2.06885 14.1661 3.71609 14.1662 5.75845H6.83283ZM4.83283 5.75845C4.83287 2.6208 7.36528 0.0688477 10.4995 0.0688477C13.6337 0.0688477 16.1661 2.6208 16.1662 5.75845H19C20.1046 5.75845 21 6.65388 21 7.75845V18.9999C21 20.1044 20.1046 20.9999 19 20.9999H2C0.89543 20.9999 0 20.1044 0 18.9999V7.75845C0 6.65388 0.895431 5.75845 2 5.75845H4.83283ZM2 7.75845H19V18.9999H2L2 7.75845Z" fill="#222222"/>
</svg>
