<svg width="12" height="12" viewBox="0 0 12 12" fill="none" xmlns="http://www.w3.org/2000/svg">
<path d="M5.62506 5.125C5.62506 5.02554 5.66456 4.93016 5.73489 4.85984C5.80522 4.78951 5.9006 4.75 6.00006 4.75H7.87506C7.97451 4.75 8.06989 4.78951 8.14022 4.85984C8.21055 4.93016 8.25006 5.02554 8.25006 5.125V7C8.25006 7.09946 8.21055 7.19484 8.14022 7.26517C8.06989 7.33549 7.97451 7.375 7.87506 7.375C7.7756 7.375 7.68022 7.33549 7.60989 7.26517C7.53956 7.19484 7.50006 7.09946 7.50006 7V6.03025L5.51556 8.0155C5.48069 8.05037 5.4393 8.07802 5.39374 8.09689C5.34819 8.11576 5.29936 8.12547 5.25006 8.12547C5.20075 8.12547 5.15192 8.11576 5.10637 8.09689C5.06081 8.07802 5.01942 8.05037 4.98456 8.0155C4.94969 7.98063 4.92203 7.93924 4.90316 7.89369C4.88429 7.84813 4.87458 7.79931 4.87458 7.75C4.87458 7.70069 4.88429 7.65187 4.90316 7.60631C4.92203 7.56076 4.94969 7.51937 4.98456 7.4845L6.96981 5.5H6.00006C5.9006 5.5 5.80522 5.46049 5.73489 5.39016C5.66456 5.31984 5.62506 5.22446 5.62506 5.125ZM3.0998 3.769C3.22638 3.39874 3.46558 3.07733 3.78391 2.84978C4.10223 2.62223 4.48376 2.49993 4.87506 2.5H8.62506C9.12234 2.5 9.59925 2.69754 9.95088 3.04917C10.3025 3.40081 10.5001 3.87772 10.5001 4.375V8.125C10.5001 8.9485 9.96906 9.6475 9.23105 9.90025V10.1733C9.23105 10.4245 9.14331 10.7455 8.93706 11.0103C8.72031 11.2893 8.37605 11.5 7.9043 11.5H3.5768C3.30349 11.5019 3.03252 11.4494 2.77966 11.3457C2.52679 11.242 2.29706 11.089 2.10383 10.8957C1.9106 10.7024 1.75771 10.4726 1.65406 10.2197C1.55041 9.9668 1.49806 9.69581 1.50005 9.4225V5.09725C1.50005 4.6855 1.6478 4.34275 1.90955 4.105C2.16455 3.87325 2.4983 3.76975 2.8268 3.76975H3.0998V3.769ZM3.00005 4.519H2.82755C2.67684 4.51297 2.52926 4.56323 2.41355 4.66C2.32505 4.74025 2.25005 4.873 2.25005 5.0965V9.42325C2.25005 10.168 2.83205 10.7508 3.57755 10.7508H7.9043C8.12855 10.7508 8.25981 10.66 8.3453 10.5497C8.4279 10.4411 8.47504 10.3096 8.48031 10.1733V10H4.87506C4.37777 10 3.90086 9.80246 3.54923 9.45083C3.1976 9.09919 3.00005 8.62228 3.00005 8.125V4.519ZM4.87506 3.25C4.57669 3.25 4.29054 3.36853 4.07956 3.5795C3.86858 3.79048 3.75005 4.07663 3.75005 4.375V8.125C3.75005 8.42337 3.86858 8.70952 4.07956 8.9205C4.29054 9.13147 4.57669 9.25 4.87506 9.25H8.62506C8.92342 9.25 9.20957 9.13147 9.42055 8.9205C9.63153 8.70952 9.75006 8.42337 9.75006 8.125V4.375C9.75006 4.07663 9.63153 3.79048 9.42055 3.5795C9.20957 3.36853 8.92342 3.25 8.62506 3.25H4.87506Z" fill="#757171"/>
</svg>
