<svg xmlns="http://www.w3.org/2000/svg" viewBox="0 0 800 800"><defs><style>.cls-1{fill:#dd3900;}.cls-2{fill:#ff6b00;}.cls-3{fill:#4a56cc;}.cls-4{fill:#c93737;}.cls-5{fill:#d93b3b;}.cls-6{fill:#e83f3f;}.cls-7{fill:#f2f2f2;}.cls-8{fill:none;}.cls-9{fill:#e2e2e2;}.cls-10{fill:#fde169;}.cls-11{fill:#58595b;}.cls-12{fill:#ecd262;}.cls-13{fill:#e8e8e8;}.cls-14{fill:#f4f4f4;}.cls-15{fill:#fff;}</style></defs><g id="_404" data-name="404"><polygon class="cls-1" points="379.66 228.18 379.48 293.29 159.37 323.93 159.55 258.82 379.66 228.18"/><polygon class="cls-1" points="219.32 318.49 219.14 383.61 109.5 320.31 109.69 255.2 219.32 318.49"/><polygon class="cls-1" points="341.6 278.68 341.41 343.79 267.83 386.55 268.01 321.44 341.6 278.68"/><polygon class="cls-1" points="267.86 346.52 267.68 411.63 246.1 399.18 246.29 334.06 267.86 346.52"/><polygon class="cls-1" points="278.58 340.29 278.39 405.4 267.68 411.63 267.86 346.52 278.58 340.29"/><polygon class="cls-1" points="197.04 362.68 196.85 427.8 169.89 412.23 170.07 347.11 197.04 362.68"/><polygon class="cls-1" points="246.29 334.06 246.1 399.18 196.85 427.8 197.04 362.68 246.29 334.06"/><polygon class="cls-2" points="379.66 228.18 159.55 258.82 241.05 305.87 314.63 263.11 341.6 278.68 268.01 321.44 278.58 340.29 267.86 346.52 246.29 334.06 197.04 362.68 170.07 347.11 219.32 318.49 109.69 255.2 131.41 242.57 351.38 211.85 379.66 228.18"/><path class="cls-1" d="M547.79,365.76l-.19,65.11q0-17-25.27-31.61Q460.68,363.67,378,411.72q-48.24,28-48.31,51.74l.18-65.12q.07-23.7,48.32-51.73,82.7-48.08,144.37-12.46Q547.83,348.76,547.79,365.76Z"/><path class="cls-1" d="M584.66,370.38l-.18,65.11q-.09,30.22-57.21,63.43-104.72,60.85-193.22,9.76-41.73-24.1-41.66-50.09l.18-65.11q-.07,26,41.67,50.09,88.49,51.09,193.21-9.77Q584.58,400.61,584.66,370.38Z"/><path class="cls-3" d="M544.25,321.52q88.5,51.09-16.8,112.28-104.72,60.85-193.21,9.77-90.1-52,14.62-112.87Q454.16,269.5,544.25,321.52ZM356,430.94q60,34.68,143.92-14.05,82.71-48.06,22.64-82.74-61.66-35.59-144.37,12.46Q294.3,395.33,356,430.94"/><path class="cls-4" d="M511.59,650.13l-55.34,32.16a3.93,3.93,0,0,1-3.55,0L397,650.14a1.22,1.22,0,0,1-.73-1l0,5.11a1.24,1.24,0,0,0,.73,1l55.7,32.15a3.93,3.93,0,0,0,3.55,0l55.33-32.16a1.23,1.23,0,0,0,.73-1v-5.1A1.23,1.23,0,0,1,511.59,650.13Z"/><path class="cls-5" d="M511.57,648.09a1.08,1.08,0,0,1,0,2L456.25,682.3a3.93,3.93,0,0,1-3.55,0L397,650.15a1.09,1.09,0,0,1,0-2.06l55.33-32.16a3.94,3.94,0,0,1,3.54,0Z"/><path class="cls-6" d="M490.19,647.16v0a13.13,13.13,0,0,0-1.88-6.69L466.6,563.14l-24.62,0-21.85,77.72a13.07,13.07,0,0,0-1.75,6.25v0h0c-.05,5.33,3.43,10.65,10.44,14.69,14,8.08,36.72,8,50.79-.09,7-4,10.52-9.32,10.59-14.6Z"/><path class="cls-4" d="M445.42,569.53c-4.87-2.81-4.84-7.38.05-10.21s12.81-2.84,17.68,0,4.84,7.38-.06,10.21S450.28,572.34,445.42,569.53Z"/><path class="cls-7" d="M486.05,632.4l-4-14.24a24.22,24.22,0,0,1-5.27,4c-12.5,7.22-32.71,7.25-45.14.08a24.07,24.07,0,0,1-5.16-3.92l-4,14.15c.62,4.14,3.66,8.18,9.14,11.34,12.43,7.18,32.64,7.14,45.14-.08C482.28,640.57,485.37,636.53,486.05,632.4Z"/><path class="cls-7" d="M472.49,584.11c-10.93,4.44-25.52,4.49-36.43.13l-5.31,18.89c.3.19.57.39.89.58,12.43,7.17,32.64,7.13,45.14-.08.36-.21.67-.43,1-.65Z"/><path class="cls-8" d="M499.88,416.89q82.71-48.06,22.64-82.74a110.72,110.72,0,0,0-49-14.92l-.44,111.35A265.69,265.69,0,0,0,499.88,416.89Z"/><path class="cls-8" d="M499.88,416.89q82.71-48.06,22.64-82.74A110.73,110.73,0,0,0,466.08,319l-.46,114.68A255.55,255.55,0,0,0,499.88,416.89Z"/><path class="cls-2" d="M544.25,321.52q88.5,51.09-16.8,112.28-104.72,60.85-193.21,9.77-90.1-52,14.62-112.87Q454.16,269.5,544.25,321.52ZM356,430.94q60,34.68,143.92-14.05,82.71-48.06,22.64-82.74-61.66-35.59-144.37,12.46Q294.3,395.33,356,430.94"/><path class="cls-8" d="M499.88,416.89q82.71-48.06,22.64-82.74A110.61,110.61,0,0,0,468.17,319l-.45,113.82A257.62,257.62,0,0,0,499.88,416.89Z"/><path class="cls-8" d="M378.15,346.61Q294.3,395.33,356,430.94q45,26,103.42,5.12l.47-116.89Q421.94,321.15,378.15,346.61Z"/><path class="cls-9" d="M459.85,319.17l-.47,116.89q4.14-1.49,8.34-3.21L468.17,319C465.42,319,462.65,319,459.85,319.17Z"/><path class="cls-9" d="M468.17,319l.08-21.1c-2.76-.17-5.53-.25-8.31-.28l-.09,21.52C462.65,319,465.42,319,468.17,319Z"/><path class="cls-8" d="M378.15,346.61Q294.3,395.33,356,430.94a106.13,106.13,0,0,0,52.73,14.41l.46-114.11A245.22,245.22,0,0,0,378.15,346.61Z"/><path class="cls-8" d="M499.88,416.89q82.71-48.06,22.64-82.74a111.25,111.25,0,0,0-62.67-15l-.47,116.89A245.62,245.62,0,0,0,499.88,416.89Z"/><path class="cls-7" d="M408.69,445.35q23.94.27,50.69-9.29l.47-116.89q-24.15,1.26-50.7,12.07Z"/><path class="cls-7" d="M459.85,319.17l.09-21.52a182.46,182.46,0,0,0-50.69,6.93l-.1,26.66Q435.7,320.44,459.85,319.17Z"/><path class="cls-10" d="M309.87,245.28l7.94-4.61a12.54,12.54,0,0,0,5.68,9.85l-7.94,4.62A12.56,12.56,0,0,1,309.87,245.28Z"/><polygon class="cls-10" points="309.89 236.68 317.83 232.06 317.81 240.67 309.87 245.28 309.89 236.68"/><polygon class="cls-10" points="310.1 165.2 318.04 160.59 317.93 196.78 309.99 201.39 310.1 165.2"/><polygon class="cls-10" points="358.84 280.13 366.78 275.52 398.28 293.7 390.34 298.32 358.84 280.13"/><polygon class="cls-10" points="421.05 316.04 428.99 311.43 460.48 329.62 452.54 334.23 421.05 316.04"/><polygon class="cls-10" points="483.25 351.96 491.19 347.34 522.69 365.53 514.75 370.14 483.25 351.96"/><path class="cls-10" d="M541.16,247.6,421.05,316l31.49,18.19,106.87-60.9-.1,35.28L483.25,352l31.5,18.18,44.46-25.34-.13,44.37c0,3.62-2.57,5.08-5.73,3.26L315.55,255.14a12.56,12.56,0,0,1-5.68-9.86l.35-124.45c0-3.62,2.58-5.08,5.72-3.26l38.62,22.29L310.1,165.2,310,201.39l76.07-43.34,30.7,17.73-106.87,60.9,0,8.6a12.56,12.56,0,0,0,5.68,9.86l12.59,7.26L448.25,194,479,211.68,358.84,280.13l31.5,18.19,120.11-68.45Z"/><polygon class="cls-10" points="315.55 255.14 323.49 250.52 336.08 257.79 328.14 262.4 315.55 255.14"/><polygon class="cls-11" points="386.06 158.05 309.99 201.39 310.1 165.2 354.56 139.86 386.06 158.05"/><path class="cls-11" d="M448.25,194,328.14,262.4l-12.59-7.26a12.56,12.56,0,0,1-5.68-9.86l0-8.6,106.87-60.9Z"/><polygon class="cls-11" points="510.45 229.87 390.34 298.32 358.84 280.13 478.96 211.68 510.45 229.87"/><polygon class="cls-11" points="559.31 308.61 559.21 344.81 514.75 370.14 483.25 351.96 559.31 308.61"/><path class="cls-11" d="M553.74,254.86a12.54,12.54,0,0,1,5.7,9.85l0,8.62-106.87,60.9L421.05,316,541.16,247.6Z"/><path class="cls-12" d="M561.67,250.25,549.09,243l-30.71-17.73-31.49-18.18-30.71-17.73-31.49-18.18L394,153.43l-31.5-18.18L323.87,113a4,4,0,0,0-4.05-.39l-7.94,4.61c1-.6,2.47-.52,4.06.4l38.61,22.29,31.5,18.19,30.71,17.73L448.24,194,479,211.68l31.5,18.19,30.7,17.73,12.59,7.26a12.56,12.56,0,0,1,5.69,9.85l0,8.62-.09,35.28-.11,36.19-.12,44.37a4,4,0,0,1-1.67,3.66l7.94-4.61a4,4,0,0,0,1.66-3.67l.13-44.36.1-36.19.1-35.28,0-8.62A12.54,12.54,0,0,0,561.67,250.25Z"/><path class="cls-6" d="M527.86,358.57,337.63,248.74a3.83,3.83,0,0,1-1.91-3.31V154.74a3.82,3.82,0,0,1,5.73-3.3L531.68,261.26a3.84,3.84,0,0,1,1.91,3.31v90.69A3.82,3.82,0,0,1,527.86,358.57Z"/><polygon class="cls-13" points="264.9 517.86 264.92 524.11 279.54 532.61 279.52 526.35 264.9 517.86"/><path class="cls-13" d="M282.74,537.08l0-6.25c0-1.62-1.07-3.24-3.2-4.48l0,6.26C281.67,533.84,282.74,535.46,282.74,537.08Z"/><polygon class="cls-13" points="303.31 537.87 303.33 544.12 307.79 534.59 307.77 528.34 303.31 537.87"/><polygon class="cls-13" points="267.22 551.75 267.24 558 283.71 555.45 283.69 549.2 267.22 551.75"/><polygon class="cls-13" points="243.96 538.23 243.98 544.48 267.24 558 267.22 551.75 243.96 538.23"/><polygon class="cls-13" points="283.69 549.2 283.71 555.45 342.97 589.89 342.95 583.64 283.69 549.2"/><path class="cls-13" d="M363.54,590.67l0,6.25c0-1.64,1.08-3.28,3.25-4.54,4.33-2.49,11.3-2.49,15.58,0v-6.26a17.15,17.15,0,0,0-15.58,0C364.62,587.38,363.54,589,363.54,590.67Z"/><polygon class="cls-13" points="396.99 594.62 397.01 600.87 402.32 589.53 402.31 583.27 396.99 594.62"/><polygon class="cls-13" points="382.38 586.13 382.39 592.38 397.01 600.87 396.99 594.62 382.38 586.13"/><polygon class="cls-13" points="338.5 593.17 338.51 599.42 361.77 612.94 361.76 606.68 338.5 593.17"/><polygon class="cls-13" points="361.76 606.68 361.77 612.94 381.38 609.9 381.36 603.64 361.76 606.68"/><path class="cls-14" d="M249.27,526.88,244,538.23l23.26,13.52,16.47-2.56L343,583.64l-4.46,9.53,23.27,13.51,19.6-3-14.61-8.49c-4.29-2.49-4.27-6.53.05-9a17.15,17.15,0,0,1,15.58,0l14.61,8.5,5.32-11.35-23.26-13.52-16.47,2.56-59.27-34.44,4.46-9.54-23.26-13.51-19.61,3,14.62,8.49c4.29,2.49,4.27,6.53-.06,9a17.16,17.16,0,0,1-15.57,0Z"/><polygon class="cls-9" points="31.9 391.18 31.85 406.66 31.82 401.04 31.87 385.55 31.9 391.18"/><polygon class="cls-9" points="31.93 396.8 31.88 412.29 31.85 406.66 31.9 391.18 31.93 396.8"/><path class="cls-13" d="M125.22,375.49l0,15.49a1,1,0,0,1-.47.79l.05-15.49A1,1,0,0,0,125.22,375.49Z"/><path class="cls-13" d="M132.54,396.8l0,15.48c0,.67-.84,1.23-2,1.31l0-15.48C131.7,398,132.55,397.46,132.54,396.8Z"/><path class="cls-13" d="M125.4,406.88l0,15.49a1.15,1.15,0,0,1-.67.92l0-15.49A1.12,1.12,0,0,0,125.4,406.88Z"/><path class="cls-13" d="M39,391l0-15.49a1.06,1.06,0,0,0,.48.82l0,15.48A1,1,0,0,1,39,391Z"/><polygon class="cls-13" points="124.75 376.29 124.71 391.77 115.61 398.63 115.66 383.14 124.75 376.29"/><polygon class="cls-13" points="48.66 383.14 48.62 398.63 39.45 391.77 39.49 376.29 48.66 383.14"/><path class="cls-13" d="M103.77,391.24l0,15.48c0-3.21-2.11-6.43-6.36-8.89-8.45-4.88-22.1-4.88-30.5,0-4.16,2.42-6.25,5.59-6.26,8.77l0-15.49c0-3.17,2.1-6.34,6.27-8.77,8.39-4.87,22-4.87,30.49,0C101.65,384.8,103.78,388,103.77,391.24Z"/><path class="cls-13" d="M33.92,398.11l0,15.48a3,3,0,0,1-1.32-.37,1.17,1.17,0,0,1-.68-.94l.05-15.48a1.15,1.15,0,0,0,.67.93A3.2,3.2,0,0,0,33.92,398.11Z"/><polygon class="cls-13" points="130.56 398.11 130.52 413.59 115.71 414.7 115.75 399.21 130.56 398.11"/><polygon class="cls-13" points="48.76 399.21 48.71 414.7 33.88 413.6 33.92 398.11 48.76 399.21"/><path class="cls-13" d="M39.15,422.35l0-15.49a1.13,1.13,0,0,0,.67.94l0,15.49A1.14,1.14,0,0,1,39.15,422.35Z"/><polygon class="cls-13" points="124.74 407.8 124.69 423.29 117.85 427.27 117.89 411.78 124.74 407.8"/><polygon class="cls-13" points="46.75 411.78 46.7 427.27 39.82 423.29 39.86 407.8 46.75 411.78"/><polygon class="cls-13" points="117.89 411.78 117.85 427.27 111.01 431.24 111.05 415.75 117.89 411.78"/><polygon class="cls-13" points="108.05 415.87 108.01 431.35 96.15 426.06 96.19 410.58 108.05 415.87"/><polygon class="cls-13" points="53.63 415.76 53.59 431.24 46.7 427.27 46.75 411.78 53.63 415.76"/><polygon class="cls-13" points="68.44 410.57 68.4 426.06 56.6 431.36 56.64 415.87 68.44 410.57"/><path class="cls-13" d="M111.05,415.76l0,15.48a3.57,3.57,0,0,1-3,.11l0-15.48A3.64,3.64,0,0,0,111.05,415.76Z"/><path class="cls-13" d="M56.64,415.87l0,15.49a3.63,3.63,0,0,1-3-.12l0-15.48A3.63,3.63,0,0,0,56.64,415.87Z"/><polygon class="cls-13" points="96.19 410.58 96.15 426.06 94.28 434.65 94.33 419.16 96.19 410.58"/><polygon class="cls-13" points="70.4 419.16 70.35 434.65 68.4 426.06 68.44 410.57 70.4 419.16"/><path class="cls-13" d="M94.33,419.16l0,15.49c-.14.66-1.1,1.15-2.25,1.15l0-15.49C93.22,420.31,94.19,419.82,94.33,419.16Z"/><polygon class="cls-13" points="92.08 420.31 92.03 435.8 82.33 435.8 82.37 420.31 92.08 420.31"/><polygon class="cls-13" points="82.37 420.31 82.33 435.8 72.62 435.8 72.66 420.31 82.37 420.31"/><path class="cls-13" d="M72.66,420.32l0,15.48a3.28,3.28,0,0,1-1.61-.38,1.28,1.28,0,0,1-.66-.77l.05-15.49a1.26,1.26,0,0,0,.65.77A3.3,3.3,0,0,0,72.66,420.32Z"/><path class="cls-14" d="M124.92,406.06c.7.53.63,1.27-.18,1.74l-6.85,4-6.84,4a3.64,3.64,0,0,1-3,.11l-11.86-5.29-1.86,8.58c-.14.66-1.11,1.15-2.25,1.15H72.66a3.3,3.3,0,0,1-1.61-.39,1.26,1.26,0,0,1-.65-.77l-2-8.58-11.8,5.29a3.63,3.63,0,0,1-3-.11l-6.88-4-6.89-4c-.81-.46-.9-1.21-.2-1.74l9.1-6.85-14.84-1.1a3.2,3.2,0,0,1-1.32-.38,1.15,1.15,0,0,1-.67-.93l0-5.62,0-5.63c0-.66.84-1.22,2-1.31l14.82-1.1-9.17-6.85c-.7-.53-.62-1.27.18-1.74l6.85-4,6.84-4a3.6,3.6,0,0,1,3-.11l11.86,5.29,1.86-8.58c.14-.66,1.11-1.16,2.26-1.16H91.75a3.3,3.3,0,0,1,1.61.39,1.23,1.23,0,0,1,.65.77l2,8.58,11.81-5.29a3.61,3.61,0,0,1,3,.11l6.88,4,6.89,4c.81.46.9,1.21.21,1.73l-9.1,6.86,14.83,1.1a3.16,3.16,0,0,1,1.32.38,1.17,1.17,0,0,1,.68.93l0,5.62,0,5.63c0,.66-.84,1.22-2,1.31l-14.81,1.1ZM67,400c8.45,4.88,22.1,4.88,30.49,0s8.35-12.79-.1-17.67-22.1-4.87-30.49,0S58.56,395.13,67,400"/><path class="cls-6" d="M211,290l-36.15-93.36a12,12,0,0,0-4.85-6c-1.89-1.09-3.78-1.11-4.87.41l-36.56,51.38c-2.17,3,.51,10,4.83,12.47l72.72,42C210.39,299.37,213.11,295.55,211,290Z"/><path class="cls-4" d="M220.25,284.61,184.1,191.26a12,12,0,0,0-4.85-6,4,4,0,0,0-4-.41l-9.29,5.4a4,4,0,0,1,4,.41,12,12,0,0,1,4.85,6L211,290c1.35,3.49.78,6.29-.91,7.27l9.29-5.4C221,290.9,221.6,288.1,220.25,284.61Z"/><polygon class="cls-15" points="166.66 264.89 166.68 258.97 172.7 262.44 172.68 268.36 166.66 264.89"/><polygon class="cls-15" points="166.79 219.14 172.81 222.62 172.72 256.52 166.69 253.04 166.79 219.14"/><polygon class="cls-1" points="768.17 452.49 767.99 517.6 547.88 548.24 548.06 483.12 768.17 452.49"/><polygon class="cls-1" points="607.83 542.8 607.65 607.91 498.01 544.62 498.2 479.5 607.83 542.8"/><polygon class="cls-1" points="730.11 502.98 729.92 568.1 656.34 610.86 656.52 545.75 730.11 502.98"/><polygon class="cls-1" points="656.37 570.82 656.19 635.94 634.62 623.48 634.8 558.37 656.37 570.82"/><polygon class="cls-1" points="667.09 564.6 666.9 629.71 656.19 635.94 656.37 570.82 667.09 564.6"/><polygon class="cls-1" points="585.55 586.99 585.37 652.1 558.4 636.53 558.59 571.42 585.55 586.99"/><polygon class="cls-1" points="634.8 558.37 634.62 623.48 585.37 652.1 585.55 586.99 634.8 558.37"/><polygon class="cls-2" points="768.17 452.49 548.06 483.12 629.56 530.18 703.14 487.42 730.11 502.98 656.52 545.75 667.09 564.6 656.37 570.82 634.8 558.37 585.55 586.99 558.59 571.42 607.83 542.8 498.2 479.5 519.92 466.88 739.9 436.16 768.17 452.49"/><ellipse class="cls-12" cx="169.68" cy="489.3" rx="35" ry="60.62" transform="translate(-320.53 656.33) rotate(-89.69)"/><rect class="cls-12" x="109.06" y="475.16" width="121.24" height="14.42"/><ellipse class="cls-10" cx="169.68" cy="474.31" rx="35" ry="60.62" transform="translate(-305.54 641.42) rotate(-89.69)"/><polygon class="cls-15" points="167.42 460.88 167.42 464.03 167.42 466.21 167.42 469.36 163.64 469.35 163.64 466.2 163.64 464.03 163.64 460.88 167.42 460.88"/><polygon class="cls-15" points="171.81 484.38 168.47 486.3 167.04 485.47 168.71 484.51 165.37 482.58 163.7 483.54 157.68 480.07 159.35 479.11 156.01 477.18 154.34 478.14 148.85 474.97 152.19 473.05 171.81 484.38"/><polygon class="cls-15" points="172.9 464.04 172.9 466.22 167.42 466.21 167.42 464.03 172.9 464.04"/><polygon class="cls-15" points="178.27 475.62 183.75 475.63 183.75 477.81 178.27 477.8 178.27 475.62"/><polygon class="cls-15" points="187.53 472.49 187.53 475.64 187.53 477.82 187.53 480.97 183.75 480.96 183.75 477.81 183.75 475.63 183.75 472.48 187.53 472.49"/><rect class="cls-15" x="159.82" y="462.37" width="2.17" height="5.47" transform="translate(-304.47 625.25) rotate(-89.91)"/><path class="cls-15" d="M196.31,459c14.68,8.48,14.68,22.23,0,30.66s-38.58,8.37-53.26-.11-14.68-22.22,0-30.64S181.62,450.56,196.31,459Zm-49.92,28.64c12.84,7.41,33.73,7.45,46.57.08s12.84-19.38,0-26.8-33.73-7.45-46.57-.08-12.84,19.38,0,26.8"/><path class="cls-15" d="M168.71,484.51l-1.67,1L164.36,487a14.07,14.07,0,0,1-12.7,0c-3.5-2-3.5-5.3,0-7.3l2.68-1.54,1.67-1,3.34,1.93-1.67,1L155,481.6c-1.66,1-1.66,2.51,0,3.47a6.68,6.68,0,0,0,6,0l2.68-1.54,1.67-1Z"/><polygon class="cls-15" points="193 475.65 193 477.83 187.53 477.82 187.53 475.64 193 475.65"/><path class="cls-6" d="M669.92,425.27a29.59,29.59,0,0,0,5.21,2.4l-5.83,3.38a29.2,29.2,0,0,1-5.21-2.4Z"/><path class="cls-6" d="M644.12,380.59c0,16.4,11.53,36.44,25.8,44.68l-5.83,3.38c-14.27-8.24-25.84-28.28-25.79-44.67,0-8.15,2.91-13.88,7.56-16.58l5.82-3.39c-4.65,2.7-7.53,8.44-7.56,16.58Z"/><path class="cls-15" d="M652.6,410.56l5.83-3.38a37.87,37.87,0,0,0,11.51,10.95l-5.83,3.39A37.78,37.78,0,0,1,652.6,410.56Z"/><path class="cls-15" d="M644.51,387.57l5.83-3.39a37.26,37.26,0,0,0,3.71,15.41L648.22,403A37.61,37.61,0,0,1,644.51,387.57Z"/><path class="cls-15" d="M683.92,419.49l-5.83,3.39c-3.57,2.08-8.52,1.79-14-1.36l5.83-3.39C675.39,421.28,680.34,421.57,683.92,419.49Z"/><path class="cls-15" d="M650.25,375l5.83-3.38c-3.53,2.05-5.72,6.41-5.74,12.6l-5.83,3.39C644.53,381.38,646.72,377,650.25,375Z"/><path class="cls-6" d="M675.13,427.67c5.09,1.74,9.65,1.44,13.19-.62l-5.83,3.39c-3.53,2.06-8.09,2.35-13.19.61Z"/><path class="cls-6" d="M650.25,375l5.83-3.38c3.58-2.08,8.53-1.79,14,1.36l-5.83,3.38C658.78,373.17,653.83,372.88,650.25,375Z"/><path class="cls-15" d="M645.86,367.4l5.82-3.39c4.71-2.74,11.23-2.36,18.41,1.79l-5.83,3.38C657.08,365,650.57,364.66,645.86,367.4Z"/><path class="cls-6" d="M689.66,406.88c0,6.2-2.21,10.56-5.74,12.61l-5.83,3.39c3.54-2.06,5.73-6.42,5.75-12.61a37.53,37.53,0,0,0-3.71-15.4l5.83-3.39A37.35,37.35,0,0,1,689.66,406.88Z"/><polygon class="cls-6" points="652.6 410.56 658.43 407.18 685.96 391.48 680.13 394.87 652.6 410.56"/><polygon class="cls-15" points="648.22 402.98 654.05 399.59 681.58 383.9 675.76 387.29 648.22 402.98"/><path class="cls-6" d="M670.07,372.94a37.67,37.67,0,0,1,11.51,11l-5.82,3.39a38,38,0,0,0-11.52-11Z"/><path class="cls-15" d="M688.32,427.05l-5.82,3.39c4.64-2.7,7.53-8.44,7.55-16.58.05-16.4-11.52-36.44-25.79-44.68l5.83-3.38c14.26,8.24,25.83,28.28,25.79,44.67C695.85,418.62,693,424.35,688.32,427.05Z"/><path class="cls-15" d="M664.26,369.18c14.27,8.24,25.84,28.28,25.79,44.68s-11.69,23-26,14.79S638.25,400.37,638.3,384,650,361,664.26,369.18Zm-19.75,18.39A37.61,37.61,0,0,0,648.22,403l27.54-15.69a38,38,0,0,0-11.52-11c-10.84-6.26-19.69-1.22-19.73,11.25m19.6,33.95c10.85,6.26,19.69,1.21,19.73-11.25a37.53,37.53,0,0,0-3.71-15.4L652.6,410.56a37.78,37.78,0,0,0,11.51,11"/><path class="cls-6" d="M652.6,410.56l27.53-15.69a37.53,37.53,0,0,1,3.71,15.4c0,12.46-8.88,17.51-19.73,11.25A37.78,37.78,0,0,1,652.6,410.56Z"/><path class="cls-6" d="M664.24,376.32a38,38,0,0,1,11.52,11L648.22,403a37.61,37.61,0,0,1-3.71-15.41C644.55,375.1,653.4,370.06,664.24,376.32Z"/><path class="cls-6" d="M697.67,373.1a12.88,12.88,0,0,1,5.85,10.12l-.22,76.69c0,3.72-2.64,5.23-5.88,3.36l-66.74-38.54a12.88,12.88,0,0,1-5.85-10.12l.22-76.69c0-3.72,2.65-5.22,5.88-3.35Zm-33.58,55.55c14.27,8.24,25.92,1.6,26-14.79s-11.52-36.44-25.79-44.68-25.91-1.6-26,14.8,11.52,36.43,25.79,44.67"/><path class="cls-4" d="M703.5,369.72l-66.74-38.54c-1.63-.94-3.11-1-4.17-.4l-5.83,3.38c1.07-.62,2.54-.53,4.17.41l66.74,38.53a12.88,12.88,0,0,1,5.85,10.12l-.22,76.69a4.09,4.09,0,0,1-1.71,3.76l5.83-3.38c1.05-.61,1.7-1.91,1.71-3.76l.21-76.69A12.87,12.87,0,0,0,703.5,369.72Z"/><path class="cls-15" d="M349.19,234.89V227l-.32-27.21-.17-11.05-.17-6.06c1.37.74,2.58,1.38,3.62,1.92.75.38,1.8.89,3.16,1.53l6.55,33.12.93,4.83q-.06-6.43-.28-18.14t-.33-16.27c1.08.62,1.94,1.09,2.59,1.43l2.58,1.27,0,11.48.46,31.9.24,9.21c-1.16-.67-2.23-1.28-3.24-1.81q-1.25-.68-3.45-1.77-.82-4.16-1.21-6l-2.59-12.19q-1.28-6-2.35-11.44-.71-3.45-1.46-7.55l.28,18.2.36,15.31c-1.1-.63-1.93-1.09-2.51-1.4Z"/><path class="cls-15" d="M380.63,198.33a12.81,12.81,0,0,1,4.12,3.87,28.18,28.18,0,0,1,3.59,7.26,60,60,0,0,1,2.49,9.76,88.32,88.32,0,0,1,1.11,11.53,76.57,76.57,0,0,1-.36,11.66,27.71,27.71,0,0,1-2,8.05c-.92,2-2.05,3.19-3.41,3.59a5.44,5.44,0,0,1-4.3-.63,14.23,14.23,0,0,1-4.37-4.09,28.28,28.28,0,0,1-3.78-7.54,53.85,53.85,0,0,1-2.46-9.76,90.23,90.23,0,0,1-1-10.88,64.68,64.68,0,0,1,.86-14.29q1.14-5.78,3.66-8T380.63,198.33Zm.14,11.71a1.9,1.9,0,0,0-2.67.74,11.75,11.75,0,0,0-1.69,5.13A44.57,44.57,0,0,0,376,224a50.55,50.55,0,0,0,.86,7.89,24.85,24.85,0,0,0,2,6.35,7.6,7.6,0,0,0,2.69,3.36,1.89,1.89,0,0,0,2.62-.69,11.32,11.32,0,0,0,1.65-5.08,45,45,0,0,0,.35-7.89,55.08,55.08,0,0,0-.86-8.07,27,27,0,0,0-1.93-6.46A7,7,0,0,0,380.77,210Z"/><path class="cls-15" d="M399.14,262q-.08-18.67-.77-41.63l-5.61-2.66-.09-4.34q-.06-3.48-.18-7.65,3.75,2.11,8.74,4.85l3.25,1.76,3.17,1.75,1.71.92.06,3.85c0,2.06.08,3.77.11,5.13s.07,2.38.1,3.07c-1.9-1.34-3.46-2.36-4.68-3l-.92-.51q0,6.88.16,12.73.17,8.38.4,16.29t.42,12.8q-2.17-1.32-2.82-1.68Z"/><path class="cls-15" d="M419.24,273.47q-.06-7.85-.15-12.65-.13-7.1-.48-19.65t-.5-17l-.16-4.39c2.65,1.55,5.11,3,7.39,4.27s4.5,2.56,6.62,3.72q.14,9.09.26,11.93l-1.16-.79-.92-.57-.93-.58-2.6-1.49L424,234.88l.24,9.21,1.93,1.22,2.14,1.24c.62.36,1.56.86,2.82,1.52q.17,7.44.34,11.7c-1.42-1-2.48-1.64-3.17-2-1.16-.67-2.43-1.34-3.8-2l.45,14.18.21,5.29.07,1.74-2.86-1.74Z"/><path class="cls-15" d="M444.5,234.08a13.84,13.84,0,0,1,4.13,4.12,31,31,0,0,1,3.65,7.56,65,65,0,0,1,2.56,10.07,93.78,93.78,0,0,1,1.22,11.81,80.7,80.7,0,0,1-.25,11.89,27.84,27.84,0,0,1-1.89,8.14c-.89,2-2,3.18-3.35,3.55a5.44,5.44,0,0,1-4.29-.82,15.17,15.17,0,0,1-4.38-4.34,31.19,31.19,0,0,1-3.84-7.85,58.54,58.54,0,0,1-2.53-10.08A94.23,94.23,0,0,1,434.44,257a66.87,66.87,0,0,1,.72-14.57q1.06-5.85,3.56-8.05T444.5,234.08Zm.25,12a1.82,1.82,0,0,0-2.65.65,11.66,11.66,0,0,0-1.64,5.18,46.63,46.63,0,0,0-.3,8.22,54.78,54.78,0,0,0,.93,8.1,26.9,26.9,0,0,0,2.08,6.57,8.19,8.19,0,0,0,2.7,3.53,1.79,1.79,0,0,0,2.6-.6,11.12,11.12,0,0,0,1.6-5.12,47.16,47.16,0,0,0,.27-8,57.92,57.92,0,0,0-.93-8.28,28.75,28.75,0,0,0-2-6.68A7.64,7.64,0,0,0,444.75,246Z"/><path class="cls-15" d="M457.84,243c1.37.88,2.34,1.48,2.9,1.82s1.64,1,2.81,1.6l.35,17c.06,3.17.14,6.16.22,9s.16,4.73.21,5.8c.09,2,.22,3.77.38,5.19a25.46,25.46,0,0,0,.69,3.8,10.21,10.21,0,0,0,1.17,2.8,4.71,4.71,0,0,0,1.46,1.6,1.34,1.34,0,0,0,1.16.21,1.53,1.53,0,0,0,.73-.72,5.59,5.59,0,0,0,.45-1.35,19.07,19.07,0,0,0,.36-2.57c.09-1,.13-2.34.12-4s-.08-5.64-.24-11.81q-.18-7.89-.38-14.49-.21-6.42-.14-6.38l3.14,1.91,2.68,1.64.66,28.38c0,.53,0,1,.05,1.32q.35,8.37.22,11.63a26.46,26.46,0,0,1-.66,5.4,7.34,7.34,0,0,1-1.72,3.35,3.18,3.18,0,0,1-2.76,1.08,7.79,7.79,0,0,1-3.24-1.19,14.32,14.32,0,0,1-2.9-2.41,19.14,19.14,0,0,1-2.39-3.27,29.5,29.5,0,0,1-1.92-3.95,30.6,30.6,0,0,1-1.21-3.75q-.44-1.81-.75-4.14c-.24-1.75-.4-3.58-.49-5.48,0-.64-.06-1.6-.1-2.89s-.09-3.13-.13-5.53l-.11-6.32q0-2.5-.18-7.36Z"/><path class="cls-15" d="M480.65,310.45l-.15-8.29-.85-28.45-.39-11.56L479,255.8c1.37.9,2.57,1.67,3.62,2.31.75.47,1.8,1.09,3.16,1.88l7.13,35.11,1,5.12q-.19-6.72-.63-19c-.29-8.16-.5-13.84-.65-17,1.08.74,1.95,1.3,2.6,1.71.3.19,1.16.71,2.58,1.55l.26,12,1.07,33.3.42,9.63c-1.15-.79-2.23-1.51-3.24-2.15-.83-.53-2-1.24-3.45-2.12q-.89-4.4-1.31-6.39l-2.8-12.94q-1.38-6.36-2.55-12.13-.78-3.66-1.6-8l.63,19,.66,16c-1.1-.75-1.93-1.3-2.51-1.66S482,311.24,480.65,310.45Z"/><path class="cls-15" d="M503,324.65c-.13-6-.25-10.89-.37-14.55q-.25-8.19-.75-21.29c-.25-6.7-.45-11.52-.59-14.43l-.22-4.8c1,.74,1.92,1.34,2.67,1.82s1.66,1,2.82,1.62,2.26,1.26,3.29,1.92a15.06,15.06,0,0,1,3.13,2.64,16.74,16.74,0,0,1,2.62,4.32,38.67,38.67,0,0,1,2.2,6.63,80.68,80.68,0,0,1,1.58,8.55c.43,3.15.72,6.29.88,9.44s.21,6,.15,8.69a69.11,69.11,0,0,1-.48,7.12,28.72,28.72,0,0,1-1,5,9.71,9.71,0,0,1-1.52,3.08,3.15,3.15,0,0,1-1.36,1.06,3.23,3.23,0,0,1-2-.14,13.83,13.83,0,0,1-3.23-1.64l-5.38-3.6C505,325.79,504.14,325.3,503,324.65Zm5.1-8.51a11.26,11.26,0,0,0,1.54,1.18,4.24,4.24,0,0,0,2.37.84c.68,0,1.25-.68,1.7-1.93a19.84,19.84,0,0,0,.86-5.42,72,72,0,0,0,0-7.49,60.9,60.9,0,0,0-1-8.57,21.67,21.67,0,0,0-1.74-5.63,7.63,7.63,0,0,0-2.64-3A17.51,17.51,0,0,0,507,285Z"/></g></svg>