<svg width="40" height="40" viewBox="0 0 40 40" fill="none" xmlns="http://www.w3.org/2000/svg">
<path d="M20 40C31.0457 40 40 31.0457 40 20C40 8.9543 31.0457 0 20 0C8.9543 0 0 8.9543 0 20C0 31.0457 8.9543 40 20 40Z" fill="#FF4500"/>
<path d="M33.5999 20.2126C33.5999 18.5827 32.2614 17.2598 30.6122 17.2598C29.7995 17.2598 29.0825 17.5669 28.5567 18.0866C26.525 16.6457 23.7046 15.7008 20.5974 15.5827L21.9598 9.27559L26.3816 10.1969C26.4294 11.3071 27.3616 12.2047 28.5089 12.2047C29.68 12.2047 30.6361 11.2598 30.6361 10.1024C30.6361 8.94488 29.68 8 28.5089 8C27.6723 8 26.9553 8.47244 26.6206 9.1811L21.673 8.14173C21.5296 8.11811 21.3862 8.14173 21.2667 8.2126C21.1472 8.28346 21.0755 8.40158 21.0277 8.54331L19.5219 15.5827C16.343 15.6772 13.4987 16.5984 11.4431 18.0866C10.9173 17.5906 10.1764 17.2598 9.3876 17.2598C7.73839 17.2598 6.3999 18.5827 6.3999 20.2126C6.3999 21.4173 7.11695 22.4331 8.16862 22.9055C8.12082 23.189 8.09691 23.4961 8.09691 23.8032C8.09691 28.3386 13.427 32 20.0238 32C26.6206 32 31.9507 28.3386 31.9507 23.8032C31.9507 23.4961 31.9268 23.2126 31.879 22.9291C32.859 22.4567 33.5999 21.4173 33.5999 20.2126ZM13.164 22.315C13.164 21.1575 14.1201 20.2126 15.2913 20.2126C16.4625 20.2126 17.4185 21.1575 17.4185 22.315C17.4185 23.4724 16.4625 24.4173 15.2913 24.4173C14.1201 24.4173 13.164 23.4724 13.164 22.315ZM25.0431 27.8661C23.5851 29.3071 20.8126 29.4016 19.9999 29.4016C19.1872 29.4016 16.3908 29.2835 14.9567 27.8661C14.7416 27.6535 14.7416 27.2992 14.9567 27.0866C15.1718 26.874 15.5303 26.874 15.7454 27.0866C16.6537 27.9843 18.6136 28.315 20.0238 28.315C21.434 28.315 23.37 27.9843 24.3022 27.0866C24.5173 26.874 24.8758 26.874 25.0909 27.0866C25.2583 27.3228 25.2583 27.6535 25.0431 27.8661ZM24.6607 24.4173C23.4895 24.4173 22.5335 23.4724 22.5335 22.315C22.5335 21.1575 23.4895 20.2126 24.6607 20.2126C25.8319 20.2126 26.788 21.1575 26.788 22.315C26.788 23.4724 25.8319 24.4173 24.6607 24.4173Z" fill="white"/>
</svg>
