<svg width="34" height="38" viewBox="0 0 34 38" fill="none" xmlns="http://www.w3.org/2000/svg">
<path fill-rule="evenodd" clip-rule="evenodd" d="M25.956 18C25.956 21.3137 23.2697 24 19.956 24C18.3531 24 16.897 23.3714 15.8207 22.3473C15.8024 22.1189 15.7058 21.8955 15.5311 21.7207C15.3934 21.5831 15.2256 21.4939 15.0488 21.4533C14.3604 20.4768 13.956 19.2856 13.956 18C13.956 14.6863 16.6423 12 19.956 12C23.2697 12 25.956 14.6863 25.956 18ZM13.3395 22.4981C12.4664 21.2164 11.956 19.6678 11.956 18C11.956 13.5817 15.5378 10 19.956 10C24.3743 10 27.956 13.5817 27.956 18C27.956 22.4183 24.3743 26 19.956 26C17.9276 26 16.0754 25.245 14.6653 24.0008L11.7071 26.9589C11.3166 27.3494 10.6834 27.3494 10.2929 26.9589C9.90237 26.5684 9.90237 25.9352 10.2929 25.5447L13.3395 22.4981Z" fill="#222222"/>
</svg>
