<svg width="33" height="33" viewBox="0 0 33 33" fill="none" xmlns="http://www.w3.org/2000/svg">
<circle cx="17" cy="17" r="16" fill="#F7F6F6"/>
<mask id="mask0_351_1375" style="mask-type:alpha" maskUnits="userSpaceOnUse" x="8" y="9" width="14" height="16">
<path d="M19.5 20.1024C18.93 20.1024 18.42 20.3283 18.03 20.6822L12.6825 17.5572C12.72 17.384 12.75 17.2108 12.75 17.0301C12.75 16.8494 12.72 16.6762 12.6825 16.503L17.97 13.4081C18.375 13.7846 18.9075 14.0181 19.5 14.0181C20.745 14.0181 21.75 13.009 21.75 11.759C21.75 10.509 20.745 9.5 19.5 9.5C18.255 9.5 17.25 10.509 17.25 11.759C17.25 11.9398 17.28 12.113 17.3175 12.2861L12.03 15.381C11.625 15.0045 11.0925 14.7711 10.5 14.7711C9.255 14.7711 8.25 15.7801 8.25 17.0301C8.25 18.2801 9.255 19.2892 10.5 19.2892C11.0925 19.2892 11.625 19.0557 12.03 18.6792L17.37 21.8117C17.3325 21.9699 17.31 22.1355 17.31 22.3012C17.31 23.5136 18.2925 24.5 19.5 24.5C20.7075 24.5 21.69 23.5136 21.69 22.3012C21.69 21.0889 20.7075 20.1024 19.5 20.1024Z" fill="black"/>
</mask>
<g mask="url(#mask0_351_1375)">
<rect x="6" y="8" width="18" height="18" fill="black"/>
</g>
</svg>
