<?xml version="1.0" encoding="utf-8"?>
<!-- Generator: Adobe Illustrator 24.2.0, SVG Export Plug-In . SVG Version: 6.00 Build 0)  -->
<svg version="1.1" id="Layer_1" xmlns="http://www.w3.org/2000/svg" xmlns:xlink="http://www.w3.org/1999/xlink" x="0px" y="0px"
	 viewBox="0 0 22 22" style="enable-background:new 0 0 22 22;" xml:space="preserve">
<style type="text/css">
	.st0{fill-rule:evenodd;clip-rule:evenodd;}
</style>
<path class="st0" d="M12.7,6.8L13,5.3l0,0l0,0c0-0.2,0.1-0.5,0.1-0.7l0,0l2,0.4l-2-0.4c0.2-0.9,0.2-1.3,0.2-1.6
	c0-0.1-0.1-0.2-0.1-0.3c-0.1-0.1-0.3-0.3-0.7-0.5c-0.4-0.2-1-0.3-1.6-0.1c-0.6,0.2-1,0.5-1.2,0.9l-2.1,5L7.3,8.4v0.8V20h9.3
	c0.7,0,1.5-0.4,2.2-1.3c0.7-1,1.2-2.4,1.2-4.1s-0.5-3.1-1.2-4.1c-0.7-1-1.5-1.3-2.2-1.3h-2h-2.4L12.7,6.8z M5.7,7.2H5.3H4.9H1
	c-0.6,0-1,0.4-1,1V21c0,0.6,0.4,1,1,1h3.9h0.4h1.6h0.4h9.3c2.9,0,5.3-3.3,5.3-7.4c0-4.1-2.4-7.4-5.3-7.4l0,0h-2l0.3-1.5
	C15,5.5,15,5.3,15,5.2l0-0.2c0.3-1.6,0.7-3.3-1.6-4.6c-1.8-1-4.6-0.2-5.6,1.7L5.7,7.2z M4.9,9.2H2V20h2.9V9.2z" fill="#222222"/>
</svg>
