<svg width="22" height="22" viewBox="0 0 22 22" fill="none" xmlns="http://www.w3.org/2000/svg">
<mask id="path-1-inside-1_351_3246" fill="white">
<path fill-rule="evenodd" clip-rule="evenodd" d="M12.6978 6.809L12.2722 9.16459H14.6659H16.6594C17.3276 9.16459 18.1152 9.53714 18.8125 10.5057C19.5077 11.4714 19.9998 12.9062 19.9998 14.5823C19.9998 16.2584 19.5077 17.6933 18.8125 18.6589C18.1152 19.6275 17.3276 20.0001 16.6594 20.0001H7.33331V9.16459V8.38375L7.5191 7.94608L9.63418 2.9635C9.8376 2.62282 10.2638 2.28174 10.8832 2.10587C11.5402 1.91929 12.1426 1.99765 12.5062 2.19376C12.9068 2.40975 13.0937 2.59309 13.1804 2.70255C13.2588 2.80152 13.294 2.88765 13.314 2.98965C13.374 3.29387 13.3155 3.69453 13.1246 4.55826L15.0775 4.98986L13.1246 4.55826L13.1215 4.57255C13.075 4.78306 13.0209 5.02774 12.9754 5.2725L12.9754 5.2725L12.9736 5.28215L12.6978 6.809ZM5.6781 7.16459L7.83385 2.08621C8.83178 0.19264 11.6367 -0.547352 13.4555 0.43337C15.8046 1.70005 15.4214 3.43408 15.0775 4.98986L15.039 5.16459C15.004 5.32473 14.9706 5.48269 14.9418 5.63774L14.6659 7.16459H16.6594L16.6983 7.16478C19.6298 7.19383 21.9998 10.5036 21.9998 14.5823C21.9998 18.679 19.6088 22.0001 16.6594 22.0001H7.33331H6.88873H5.33331H4.88873H1C0.447715 22.0001 0 21.5523 0 21.0001V8.16459C0 7.6123 0.447715 7.16459 1 7.16459L4.88873 7.16459L5.33331 7.16459L5.6781 7.16459ZM4.88873 9.16459V20.0001H2V9.16459H4.88873Z"/>
</mask>
<path fill-rule="evenodd" clip-rule="evenodd" d="M12.6978 6.809L12.2722 9.16459H14.6659H16.6594C17.3276 9.16459 18.1152 9.53714 18.8125 10.5057C19.5077 11.4714 19.9998 12.9062 19.9998 14.5823C19.9998 16.2584 19.5077 17.6933 18.8125 18.6589C18.1152 19.6275 17.3276 20.0001 16.6594 20.0001H7.33331V9.16459V8.38375L7.5191 7.94608L9.63418 2.9635C9.8376 2.62282 10.2638 2.28174 10.8832 2.10587C11.5402 1.91929 12.1426 1.99765 12.5062 2.19376C12.9068 2.40975 13.0937 2.59309 13.1804 2.70255C13.2588 2.80152 13.294 2.88765 13.314 2.98965C13.374 3.29387 13.3155 3.69453 13.1246 4.55826L15.0775 4.98986L13.1246 4.55826L13.1215 4.57255C13.075 4.78306 13.0209 5.02774 12.9754 5.2725L12.9754 5.2725L12.9736 5.28215L12.6978 6.809ZM5.6781 7.16459L7.83385 2.08621C8.83178 0.19264 11.6367 -0.547352 13.4555 0.43337C15.8046 1.70005 15.4214 3.43408 15.0775 4.98986L15.039 5.16459C15.004 5.32473 14.9706 5.48269 14.9418 5.63774L14.6659 7.16459H16.6594L16.6983 7.16478C19.6298 7.19383 21.9998 10.5036 21.9998 14.5823C21.9998 18.679 19.6088 22.0001 16.6594 22.0001H7.33331H6.88873H5.33331H4.88873H1C0.447715 22.0001 0 21.5523 0 21.0001V8.16459C0 7.6123 0.447715 7.16459 1 7.16459L4.88873 7.16459L5.33331 7.16459L5.6781 7.16459ZM4.88873 9.16459V20.0001H2V9.16459H4.88873Z" fill="black"/>
<path d="M12.2722 9.16459L11.2881 8.9868L11.0753 10.1646H12.2722V9.16459ZM12.6978 6.809L11.7137 6.63121V6.63121L12.6978 6.809ZM18.8125 10.5057L19.6241 9.92147L18.8125 10.5057ZM18.8125 18.6589L19.6241 19.2432L18.8125 18.6589ZM7.33331 20.0001H6.33331V21.0001H7.33331V20.0001ZM7.33331 8.38375L6.41281 7.99301L6.33331 8.18029V8.38375H7.33331ZM7.5191 7.94608L8.4396 8.33683L8.4396 8.33683L7.5191 7.94608ZM9.63418 2.9635L8.77558 2.45085L8.74045 2.50968L8.71368 2.57275L9.63418 2.9635ZM10.8832 2.10587L10.61 1.1439H10.61L10.8832 2.10587ZM12.5062 2.19376L12.9809 1.31356V1.31356L12.5062 2.19376ZM13.1804 2.70255L12.3964 3.32337L12.3964 3.32337L13.1804 2.70255ZM13.314 2.98965L14.2952 2.79643L14.2952 2.79642L13.314 2.98965ZM13.1246 4.55826L12.1482 4.34246L11.9324 5.3189L12.9088 5.5347L13.1246 4.55826ZM13.1246 4.55826L13.3404 3.58183L12.364 3.36603L12.1482 4.34245L13.1246 4.55826ZM13.1215 4.57255L14.0979 4.78837L14.0979 4.78836L13.1215 4.57255ZM12.9754 5.2725L12.7983 6.25669L13.777 6.43286L13.9586 5.45512L12.9754 5.2725ZM12.9754 5.2725L13.1525 4.28832L12.1689 4.11127L11.9913 5.09477L12.9754 5.2725ZM12.9736 5.28215L13.9577 5.45995L13.9577 5.45988L12.9736 5.28215ZM5.6781 7.16459L5.6781 8.16459L6.33998 8.16459L6.5986 7.55533L5.6781 7.16459ZM7.83385 2.08621L6.94918 1.61998L6.92969 1.65698L6.91335 1.69546L7.83385 2.08621ZM13.4555 0.43337L12.9809 1.31356L13.4555 0.43337ZM15.039 5.16459L14.0624 4.94953L14.0621 4.95104L15.039 5.16459ZM14.9418 5.63774L13.9586 5.45512L13.9577 5.45995L14.9418 5.63774ZM14.6659 7.16459L13.6819 6.98679L13.4691 8.16459H14.6659V7.16459ZM16.6594 7.16459L16.6643 6.16459H16.6594V7.16459ZM16.6983 7.16478L16.7082 6.16482L16.7032 6.16479L16.6983 7.16478ZM1 7.16459L1 6.16459H1V7.16459ZM4.88873 7.16459V8.16459H4.88873L4.88873 7.16459ZM5.33331 7.16459L5.33331 6.16459H5.33331L5.33331 7.16459ZM4.88873 20.0001V21.0001H5.88873V20.0001H4.88873ZM4.88873 9.16459H5.88873V8.16459H4.88873V9.16459ZM2 20.0001H1V21.0001H2V20.0001ZM2 9.16459V8.16459H1V9.16459H2ZM13.2563 9.34238L13.6819 6.98679L11.7137 6.63121L11.2881 8.9868L13.2563 9.34238ZM14.6659 8.16459H12.2722V10.1646H14.6659V8.16459ZM16.6594 8.16459H14.6659V10.1646H16.6594V8.16459ZM19.6241 9.92147C18.7888 8.76125 17.7261 8.16459 16.6594 8.16459V10.1646C16.929 10.1646 17.4416 10.313 18.001 11.09L19.6241 9.92147ZM20.9998 14.5823C20.9998 12.7199 20.4547 11.0753 19.6241 9.92147L18.001 11.09C18.5607 11.8675 18.9998 13.0926 18.9998 14.5823H20.9998ZM19.6241 19.2432C20.4547 18.0894 20.9998 16.4448 20.9998 14.5823H18.9998C18.9998 16.072 18.5607 17.2972 18.001 18.0746L19.6241 19.2432ZM16.6594 21.0001C17.7261 21.0001 18.7888 20.4034 19.6241 19.2432L18.001 18.0746C17.4416 18.8516 16.929 19.0001 16.6594 19.0001V21.0001ZM7.33331 21.0001H16.6594V19.0001H7.33331V21.0001ZM8.33331 20.0001V9.16459H6.33331V20.0001H8.33331ZM8.33331 9.16459V8.38375H6.33331V9.16459H8.33331ZM6.5986 7.55533L6.41281 7.99301L8.25381 8.7745L8.4396 8.33683L6.5986 7.55533ZM8.71368 2.57275L6.5986 7.55533L8.4396 8.33683L10.5547 3.35425L8.71368 2.57275ZM10.61 1.1439C9.79355 1.37574 9.13332 1.8517 8.77558 2.45085L10.4928 3.47616C10.5419 3.39393 10.7341 3.18773 11.1563 3.06783L10.61 1.1439ZM12.9809 1.31356C12.3464 0.971448 11.4679 0.900294 10.61 1.1439L11.1563 3.06783C11.6125 2.93829 11.9387 3.02386 12.0316 3.07395L12.9809 1.31356ZM13.9643 2.08173C13.7766 1.84471 13.4751 1.58005 12.9809 1.31356L12.0316 3.07395C12.3386 3.23946 12.4108 3.34147 12.3964 3.32337L13.9643 2.08173ZM14.2952 2.79642C14.2463 2.54815 14.1476 2.31319 13.9643 2.08173L12.3964 3.32337C12.3918 3.31749 12.3749 3.29448 12.358 3.25715C12.341 3.21973 12.3344 3.19055 12.3329 3.18287L14.2952 2.79642ZM14.1011 4.77406C14.2793 3.96768 14.4035 3.34616 14.2952 2.79643L12.3329 3.18287C12.3341 3.18889 12.3454 3.24708 12.3212 3.43928C12.2965 3.63571 12.2432 3.91264 12.1482 4.34246L14.1011 4.77406ZM15.2933 4.01343L13.3404 3.58182L12.9088 5.5347L14.8617 5.9663L15.2933 4.01343ZM12.9088 5.5347L14.8617 5.9663L15.2933 4.01343L13.3404 3.58183L12.9088 5.5347ZM14.0979 4.78836L14.1011 4.77408L12.1482 4.34245L12.1451 4.35673L14.0979 4.78836ZM13.9586 5.45512C14.0005 5.22962 14.0509 5.00113 14.0979 4.78837L12.1451 4.35673C12.099 4.565 12.0413 4.82586 11.9922 5.08989L13.9586 5.45512ZM12.7982 6.25668L12.7983 6.25669L13.1526 4.28832L13.1525 4.28832L12.7982 6.25668ZM13.9577 5.45988L13.9595 5.45023L11.9913 5.09477L11.9896 5.10442L13.9577 5.45988ZM13.6819 6.9868L13.9577 5.45995L11.9896 5.10436L11.7137 6.63121L13.6819 6.9868ZM6.5986 7.55533L8.75434 2.47696L6.91335 1.69546L4.75761 6.77384L6.5986 7.55533ZM8.71851 2.55244C9.06247 1.89978 9.75695 1.38614 10.61 1.1439C11.4652 0.90106 12.3443 0.97033 12.9809 1.31356L13.9301 -0.446825C12.7478 -1.08431 11.3151 -1.13541 10.0637 -0.780037C8.81009 -0.424065 7.60316 0.379071 6.94918 1.61998L8.71851 2.55244ZM12.9809 1.31356C13.9387 1.83005 14.2075 2.35125 14.2952 2.79642C14.4026 3.3417 14.2825 3.95325 14.1011 4.77406L16.054 5.20566C16.2164 4.47069 16.4598 3.43734 16.2575 2.40998C16.0355 1.28253 15.3214 0.303368 13.9301 -0.446825L12.9809 1.31356ZM14.1009 4.77481L14.0624 4.94953L16.0156 5.37964L16.0541 5.20492L14.1009 4.77481ZM14.0621 4.95104C14.0264 5.11424 13.9903 5.28438 13.9586 5.45512L15.925 5.82036C15.9508 5.681 15.9816 5.53523 16.016 5.37814L14.0621 4.95104ZM13.9577 5.45995L13.6819 6.98679L15.65 7.34238L15.9258 5.81553L13.9577 5.45995ZM14.6659 8.16459H16.6594V6.16459H14.6659V8.16459ZM16.6544 8.16457L16.6933 8.16477L16.7032 6.16479L16.6643 6.1646L16.6544 8.16457ZM16.6884 8.16473C17.7538 8.17529 18.8089 8.78152 19.6349 9.93663C20.4597 11.0899 20.9998 12.7284 20.9998 14.5823H22.9998C22.9998 12.3576 22.3549 10.3018 21.2618 8.77324C20.1699 7.24652 18.5743 6.18332 16.7082 6.16483L16.6884 8.16473ZM20.9998 14.5823C20.9998 16.4445 20.4549 18.0892 19.6241 19.2432C18.7922 20.3987 17.7308 21.0001 16.6594 21.0001V23.0001C18.5373 23.0001 20.1462 21.9409 21.2472 20.4117C22.3492 18.881 22.9998 16.8168 22.9998 14.5823H20.9998ZM16.6594 21.0001H7.33331V23.0001H16.6594V21.0001ZM6.88873 23.0001H7.33331V21.0001H6.88873V23.0001ZM5.33331 23.0001H6.88873V21.0001H5.33331V23.0001ZM4.88873 23.0001H5.33331V21.0001H4.88873V23.0001ZM1 23.0001H4.88873V21.0001H1V23.0001ZM-1 21.0001C-1 22.1046 -0.10457 23.0001 1 23.0001V21.0001H1H-1ZM-1 8.16459V21.0001H1V8.16459H-1ZM1 6.16459C-0.104569 6.16459 -1 7.06002 -1 8.16459H1L1 8.16459V6.16459ZM4.88873 6.16459L1 6.16459L1 8.16459H4.88873V6.16459ZM5.33331 6.16459L4.88873 6.16459L4.88873 8.16459H5.33331L5.33331 6.16459ZM5.6781 6.16459L5.33331 6.16459L5.33331 8.16459H5.6781L5.6781 6.16459ZM5.88873 20.0001V9.16459H3.88873V20.0001H5.88873ZM2 21.0001H4.88873V19.0001H2V21.0001ZM1 9.16459V20.0001H3V9.16459H1ZM4.88873 8.16459H2V10.1646H4.88873V8.16459Z" fill="black" mask="url(#path-1-inside-1_351_3246)"/>
</svg>
