<svg width="40" height="40" viewBox="0 0 40 40" fill="none" xmlns="http://www.w3.org/2000/svg">
<circle cx="20" cy="20" r="20" fill="#18ACFE"/>
<g clip-path="url(#clip0_714_2972)">
<path d="M16.5502 31.7502C25.6045 31.7502 30.5583 24.2469 30.5583 17.7421C30.5583 17.5312 30.5536 17.3155 30.5442 17.1046C31.5079 16.4077 32.3395 15.5445 33 14.5555C32.1025 14.9548 31.1496 15.2156 30.1739 15.329C31.2013 14.7132 31.9705 13.7457 32.3391 12.606C31.3726 13.1788 30.3156 13.5829 29.2134 13.8009C28.4708 13.0118 27.489 12.4894 26.4197 12.3143C25.3504 12.1392 24.2532 12.3213 23.2977 12.8323C22.3423 13.3434 21.5818 14.1549 21.1338 15.1416C20.6859 16.1282 20.5754 17.2349 20.8195 18.2905C18.8625 18.1923 16.9479 17.6839 15.2 16.7983C13.452 15.9127 11.9097 14.6697 10.673 13.1498C10.0444 14.2335 9.85206 15.5159 10.135 16.7363C10.418 17.9568 11.1551 19.0237 12.1964 19.7202C11.4146 19.6954 10.65 19.4849 9.96563 19.1062V19.1671C9.96492 20.3044 10.3581 21.4068 11.0783 22.287C11.7985 23.1672 12.8013 23.7708 13.9162 23.9952C13.1921 24.1934 12.432 24.2222 11.6948 24.0796C12.0095 25.0577 12.6216 25.9131 13.4458 26.5266C14.27 27.14 15.2651 27.4808 16.2923 27.5015C14.5484 28.8714 12.3942 29.6144 10.1766 29.6109C9.78329 29.6103 9.3904 29.5861 9 29.5387C11.2529 30.984 13.8735 31.7516 16.5502 31.7502Z" fill="white"/>
</g>
<defs>
<clipPath id="clip0_714_2972">
<rect width="24" height="24" fill="white" transform="translate(9 10)"/>
</clipPath>
</defs>
</svg>
